<svg width="24" height="24" viewBox="0 0 24 24" fill="none" xmlns="http://www.w3.org/2000/svg">

<g id="Icon">
<g id="container">

<g id="Frame 13164">
<g id="Frame 13163">
<g id="Icon_2">
<g id="Icon/production">
<rect id="Rectangle 846" x="11" y="16" width="3" height="1" transform="rotate(90 11 16)" fill="#333333"/>
<rect id="Rectangle 847" x="19" y="16" width="3" height="1" transform="rotate(90 19 16)" fill="#333333"/>
<path id="Vector 136" d="M3 2.5H8.40918C8.77744 2.50018 9.0191 2.88492 8.85938 3.2168L8.01172 4.97754C7.91409 5.18041 7.86331 5.40279 7.86328 5.62793V18C7.86328 18.2761 7.63942 18.5 7.36328 18.5H3C2.72386 18.5 2.5 18.2761 2.5 18V3C2.5 2.72386 2.72386 2.5 3 2.5Z" stroke="#333333" stroke-linecap="round"/>
<path id="Rectangle 841" d="M20 12.5C20.2761 12.5 20.5 12.7239 20.5 13V15C20.5 15.2761 20.2761 15.5 20 15.5H8.5V12.5H20Z" stroke="#333333"/>
<rect id="Rectangle 849" x="2.5" y="18.5" width="19" height="3" rx="0.5" stroke="#333333"/>
<rect id="Rectangle 843" x="10.4" y="7.4" width="3.2" height="4.2" rx="0.6" stroke="#333333" stroke-width="0.8"/>
<rect id="Rectangle 844" x="15.4" y="7.4" width="3.2" height="4.2" rx="0.6" stroke="#333333" stroke-width="0.8"/>
</g>
</g>
</g>
</g>
</g>
</g>
</svg>
