<svg width="29" height="29" viewBox="0 0 29 29" fill="none" xmlns="http://www.w3.org/2000/svg">
<g filter="url(#filter0_d_11110_53210)">
<rect x="2.40039" y="1.2002" width="24" height="24" rx="4.8" fill="white" shape-rendering="crispEdges"/>
<rect x="2.90039" y="1.7002" width="23" height="23" rx="4.3" stroke="#009944" shape-rendering="crispEdges"/>
<path d="M20.0655 17.0801C20.4565 17.4712 21.0904 17.4712 21.4815 17.0801C21.8725 16.6891 21.8725 16.0552 21.4815 15.6641L15.4008 9.58352C14.776 8.95868 13.7629 8.95868 13.1381 9.58352L7.05745 15.6641C6.66644 16.0552 6.66643 16.6891 7.05745 17.0801C7.44847 17.4712 8.08243 17.4712 8.47345 17.0801L13.1381 12.4155C13.7629 11.7907 14.776 11.7907 15.4008 12.4155L20.0655 17.0801Z" fill="#009944"/>
</g>
<defs>
<filter id="filter0_d_11110_53210" x="0.00039053" y="0.000195265" width="28.8" height="28.8" filterUnits="userSpaceOnUse" color-interpolation-filters="sRGB">
<feFlood flood-opacity="0" result="BackgroundImageFix"/>
<feColorMatrix in="SourceAlpha" type="matrix" values="0 0 0 0 0 0 0 0 0 0 0 0 0 0 0 0 0 0 127 0" result="hardAlpha"/>
<feOffset dy="1.2"/>
<feGaussianBlur stdDeviation="1.2"/>
<feComposite in2="hardAlpha" operator="out"/>
<feColorMatrix type="matrix" values="0 0 0 0 0.2 0 0 0 0 0.2 0 0 0 0 0.2 0 0 0 0.24 0"/>
<feBlend mode="normal" in2="BackgroundImageFix" result="effect1_dropShadow_11110_53210"/>
<feBlend mode="normal" in="SourceGraphic" in2="effect1_dropShadow_11110_53210" result="shape"/>
</filter>
</defs>
</svg>
