<svg width="80" height="80" viewBox="0 0 80 80" fill="none" xmlns="http://www.w3.org/2000/svg">
<path d="M66.6667 40.0003C66.6667 25.2727 54.7276 13.3337 40 13.3337C25.2724 13.3337 13.3334 25.2727 13.3334 40.0003C13.3334 54.7279 25.2724 66.667 40 66.667C54.7276 66.667 66.6667 54.7279 66.6667 40.0003ZM73.3334 40.0003C73.3334 58.4098 58.4095 73.3337 40 73.3337C21.5905 73.3337 6.66669 58.4098 6.66669 40.0003C6.66669 21.5908 21.5905 6.66699 40 6.66699C58.4095 6.66699 73.3334 21.5908 73.3334 40.0003Z" fill="#009944"/>
<path d="M52.4935 30.527C53.7952 29.2255 55.9053 29.2253 57.207 30.527C58.5084 31.8286 58.5084 33.9388 57.207 35.2405L38.3886 54.0589L38.1445 54.2802C37.5516 54.7655 36.8049 55.0322 36.0319 55.0322C35.2587 55.0319 34.5121 54.766 33.9192 54.2802L33.6751 54.0589L24.4596 44.8401C23.1581 43.5383 23.1579 41.4283 24.4596 40.1266C25.7613 38.8251 27.8715 38.8251 29.1732 40.1266L36.0319 46.9853L52.4935 30.527Z" fill="#009944"/>
</svg>
