<svg width="24" height="24" viewBox="0 0 24 24" fill="none" xmlns="http://www.w3.org/2000/svg">
<path d="M8 5H4C3.73478 5 3.48043 5.10536 3.29289 5.29289C3.10536 5.48043 3 5.73478 3 6V20C3 20.2652 3.10536 20.5196 3.29289 20.7071C3.48043 20.8946 3.73478 21 4 21H20C20.2652 21 20.5196 20.8946 20.7071 20.7071C20.8946 20.5196 21 20.2652 21 20V6C21 5.73478 20.8946 5.48043 20.7071 5.29289C20.5196 5.10536 20.2652 5 20 5H19" stroke="#808080" stroke-width="1.5" stroke-linecap="round" stroke-linejoin="round"/>
<path d="M11 5H16" stroke="#808080" stroke-width="1.5" stroke-linecap="round" stroke-linejoin="round"/>
<path d="M8 3V7" stroke="#808080" stroke-width="1.5" stroke-linecap="round" stroke-linejoin="round"/>
<path d="M16 3V7" stroke="#808080" stroke-width="1.5" stroke-linecap="round" stroke-linejoin="round"/>
<path d="M3 10.5H17" stroke="#808080" stroke-width="1.5" stroke-linecap="round" stroke-linejoin="round"/>
</svg>
